<?xml version="1.0" encoding="UTF-8"?>
<svg width="86px" height="86px" viewBox="0 0 86 86" version="1.1" xmlns="http://www.w3.org/2000/svg" xmlns:xlink="http://www.w3.org/1999/xlink">
    <!-- Generator: Sketch 55.2 (78181) - https://sketchapp.com -->
    <title>Combined Shape</title>
    <desc>Created with Sketch.</desc>
    <defs>
        <path d="M56.6880985,1.57457927 L84.4254207,29.3119015 C85.6885453,30.5750261 86.1818517,32.4160703 85.719516,34.1415306 L75.5669514,72.0314175 C75.1046157,73.7568778 73.7568778,75.1046157 72.0314175,75.5669514 L34.1415306,85.719516 C32.4160703,86.1818517 30.5750261,85.6885453 29.3119015,84.4254207 L1.57457927,56.6880985 C0.311454663,55.4249739 -0.18185165,53.5839297 0.280484044,51.8584694 L10.4330486,13.9685825 C10.8953843,12.2431222 12.2431222,10.8953843 13.9685825,10.4330486 L51.8584694,0.280484044 C53.5839297,-0.18185165 55.4249739,0.311454663 56.6880985,1.57457927 Z M30.1764706,48.92 L38.2312296,48.92 C38.7857591,48.92 39.2352941,48.4656342 39.2352941,47.920658 L39.2352941,44.799342 C39.2352941,44.2474206 38.7860657,43.8 38.2312296,43.8 L30.1764706,43.8 L30.1764706,36.12 L45.9979936,36.12 C46.5513864,36.12 47,35.6656342 47,35.120658 L47,31.999342 C47,31.4474206 46.5605417,31 45.9975383,31 L26.0024617,31 C25.4488174,31 25,31.4523621 25,31.9927864 L25,62.0072136 C25,62.5555144 25.441343,63 25.9980756,63 L29.178395,63 C29.7296169,63 30.1764706,62.5474801 30.1764706,62.0099217 L30.1764706,48.92 Z M51,37.0605227 C51,37.0605227 52.8153242,39 56.2730845,39 C60.1414538,39 62,36.4828061 62,33.9656121 C62,31.9023384 60.5520629,30.1691884 58.2612967,29.6946355 L61.3948919,26.2489684 L61.3948919,25 C61.3948919,24.4477153 60.9471767,24 60.3948919,24 L52.6483301,24 C52.0960453,24 51.6483301,24.4477153 51.6483301,25 L51.6483301,27.0949106 L55.3438114,27.0949106 C56.3163065,27.0949106 56.8133595,26.9917469 56.8133595,26.9917469 L56.8133595,27.0330124 C56.8133595,27.0330124 56.2082515,27.5694635 55.4734774,28.4154058 L53.4420432,30.7469051 L54.2416503,32.5006878 L55.3222004,32.5006878 C56.9862475,32.5006878 58.1964637,32.9752407 58.1964637,34.130674 C58.1964637,34.9353508 57.3968566,35.5955983 55.9921415,35.5955983 C54.1984283,35.5955983 52.8153242,34.2751032 52.8153242,34.2751032 L51,37.0605227 Z" id="path-1"></path>
    </defs>
    <g id="Symbols" stroke="none" stroke-width="1" fill="none" fill-rule="evenodd">
        <g id="Group-5">
            <mask id="mask-2" fill="white">
                <use xlink:href="#path-1"></use>
            </mask>
            <use id="Combined-Shape" fill="#FFFFFF" fill-rule="nonzero" xlink:href="#path-1"></use>
        </g>
    </g>
</svg>